<svg width="63" height="66" viewBox="0 0 63 66" fill="none" xmlns="http://www.w3.org/2000/svg">
<path d="M22.5902 41.0093H18.6902C18.1125 41.0093 17.6069 40.7927 17.1736 40.3593C16.7402 39.926 16.5236 39.4205 16.5236 38.8427V36.676C16.5236 36.5316 16.4513 36.4593 16.3069 36.4593C15.0069 36.026 13.7791 35.4482 12.6236 34.726C12.4791 34.726 12.3347 34.726 12.1902 34.726L10.6736 36.2427C10.2402 36.676 9.73468 36.8927 9.1569 36.8927C8.57912 36.8927 8.07357 36.676 7.64023 36.2427L5.04023 33.6427C4.6069 33.2093 4.39023 32.7038 4.39023 32.126C4.39023 31.5482 4.6069 31.0427 5.04023 30.6093L6.5569 29.0927C6.5569 28.9482 6.5569 28.876 6.5569 28.876C5.83468 27.576 5.32912 26.276 5.04023 24.976C4.89579 24.8316 4.75135 24.7593 4.6069 24.7593H2.6569C1.93468 24.7593 1.39301 24.5427 1.0319 24.1093C0.67079 23.676 0.490234 23.1705 0.490234 22.5927V18.6927C0.490234 18.1149 0.67079 17.6455 1.0319 17.2843C1.39301 16.9232 1.93468 16.7427 2.6569 16.7427H4.6069C4.75135 16.7427 4.89579 16.6705 5.04023 16.526C5.32912 15.0816 5.83468 13.7816 6.5569 12.626C6.5569 12.4816 6.5569 12.4093 6.5569 12.4093L5.04023 10.8927C4.6069 10.4593 4.39023 9.91768 4.39023 9.26767C4.39023 8.61768 4.6069 8.14823 5.04023 7.85934L7.64023 5.04268C8.07357 4.60934 8.57912 4.39267 9.1569 4.39267C9.73468 4.39267 10.2402 4.60934 10.6736 5.04268L12.1902 6.55934C12.3347 6.70378 12.4791 6.70378 12.6236 6.55934C13.7791 5.83712 15.0069 5.33157 16.3069 5.04268C16.4513 5.04268 16.5236 4.97045 16.5236 4.82601V2.65934C16.5236 2.08157 16.7402 1.57601 17.1736 1.14268C17.6069 0.709343 18.1125 0.492676 18.6902 0.492676H22.5902C23.168 0.492676 23.6736 0.709343 24.1069 1.14268C24.5402 1.57601 24.7569 2.08157 24.7569 2.65934V4.82601C24.7569 4.97045 24.8291 5.04268 24.9736 5.04268C26.2736 5.33157 27.5013 5.83712 28.6569 6.55934C28.8013 6.70378 28.9458 6.70378 29.0902 6.55934L30.6069 5.04268C31.0402 4.60934 31.5458 4.39267 32.1236 4.39267C32.7013 4.39267 33.2069 4.60934 33.6402 5.04268L33.8569 5.25934C34.1458 5.54823 34.218 5.87323 34.0736 6.23434C33.9291 6.59545 33.7125 6.84823 33.4236 6.99268C33.1347 7.13712 32.8458 7.0649 32.5569 6.77601L32.3402 6.55934C32.1958 6.27045 32.0513 6.19823 31.9069 6.34267L30.3902 7.85934C29.9569 8.29268 29.5236 8.54545 29.0902 8.61768C28.6569 8.6899 28.2236 8.58157 27.7902 8.29268C26.6347 7.7149 25.4791 7.20934 24.3236 6.77601C23.8902 6.77601 23.5291 6.55934 23.2402 6.12601C22.9513 5.69268 22.8069 5.25934 22.8069 4.82601V2.65934C22.8069 2.5149 22.7347 2.44268 22.5902 2.44268H18.6902C18.5458 2.44268 18.4736 2.5149 18.4736 2.65934V4.82601C18.4736 5.25934 18.3291 5.69268 18.0402 6.12601C17.7513 6.55934 17.318 6.77601 16.7402 6.77601C15.5847 7.20934 14.5013 7.7149 13.4902 8.29268C13.0569 8.58157 12.5875 8.6899 12.0819 8.61768C11.5763 8.54545 11.1791 8.29268 10.8902 7.85934L9.37357 6.34267H9.1569H8.94023L6.34023 9.15934V9.37601L7.8569 10.8927C8.14579 11.326 8.32635 11.7593 8.39857 12.1927C8.47079 12.626 8.36246 13.0593 8.07357 13.4927C7.49579 14.6482 7.06246 15.8038 6.77357 16.9593C6.62912 17.3927 6.37635 17.7538 6.01523 18.0427C5.65412 18.3316 5.18468 18.476 4.6069 18.476H2.6569C2.36801 18.476 2.22357 18.5482 2.22357 18.6927V22.5927C2.22357 22.7371 2.36801 22.8093 2.6569 22.8093H4.6069C5.18468 22.8093 5.65412 22.9538 6.01523 23.2427C6.37635 23.5316 6.62912 23.9649 6.77357 24.5427C7.06246 25.6982 7.49579 26.7816 8.07357 27.7927C8.36246 28.226 8.47079 28.6955 8.39857 29.201C8.32635 29.7066 8.14579 30.1038 7.8569 30.3927L6.34023 31.9093V32.126V32.3427L8.94023 34.9427C9.08468 35.0871 9.22912 35.0871 9.37357 34.9427L10.8902 33.426C11.1791 33.1371 11.5763 32.9566 12.0819 32.8843C12.5875 32.8121 13.0569 32.9205 13.4902 33.2093C14.5013 33.7871 15.5847 34.2205 16.7402 34.5093C17.318 34.6538 17.7513 34.9066 18.0402 35.2677C18.3291 35.6288 18.4736 36.0982 18.4736 36.676V38.8427C18.4736 38.9871 18.5458 39.0593 18.6902 39.0593H22.5902C22.7347 39.0593 22.8069 38.9871 22.8069 38.8427V36.676C22.8069 36.0982 22.9513 35.6288 23.2402 35.2677C23.5291 34.9066 23.8902 34.6538 24.3236 34.5093C24.7569 34.3649 25.0819 34.4371 25.2986 34.726C25.5152 35.0149 25.5875 35.3399 25.5152 35.701C25.443 36.0621 25.2986 36.2788 25.0819 36.351C24.8652 36.4232 24.7569 36.5316 24.7569 36.676V38.8427C24.7569 39.4205 24.5402 39.926 24.1069 40.3593C23.6736 40.7927 23.168 41.0093 22.5902 41.0093ZM11.5402 20.6427C11.5402 18.6205 12.1541 16.8149 13.3819 15.226C14.6097 13.6371 16.1625 12.5899 18.0402 12.0843C19.918 11.5788 21.868 11.6871 23.8902 12.4093C24.1791 12.5538 24.3597 12.7705 24.4319 13.0593C24.5041 13.3482 24.3958 13.6371 24.1069 13.926C23.818 14.2149 23.5291 14.2871 23.2402 14.1427C21.6513 13.5649 20.0986 13.4927 18.5819 13.926C17.0652 14.3593 15.8375 15.1899 14.8986 16.4177C13.9597 17.6455 13.4902 19.0538 13.4902 20.6427C13.4902 22.6649 14.2486 24.3982 15.7652 25.8427C17.2819 27.2871 19.0513 27.9371 21.0736 27.7927C21.5069 27.7927 21.7958 27.9371 21.9402 28.226C22.0847 28.5149 22.0847 28.8038 21.9402 29.0927C21.7958 29.3816 21.5069 29.5982 21.0736 29.7427C18.618 29.8871 16.4152 29.0566 14.4652 27.251C12.5152 25.4455 11.5402 23.2427 11.5402 20.6427ZM53.1402 42.7427L43.3902 40.7927V38.4093C46.1347 36.676 47.6513 34.2205 47.9402 31.0427C48.6625 31.0427 49.2763 30.7899 49.7819 30.2843C50.2875 29.7788 50.5402 29.1649 50.5402 28.4427V26.4927C51.2625 26.0593 51.7319 25.5177 51.9486 24.8677C52.1652 24.2177 52.093 23.5316 51.7319 22.8093C51.3708 22.0871 50.8291 21.6538 50.1069 21.5093V20.8593C50.1069 17.3927 48.8791 14.4677 46.4236 12.0843C43.968 9.70101 41.0791 8.50934 37.7569 8.50934H36.6736C33.3513 8.50934 30.4625 9.70101 28.0069 12.0843C25.5513 14.4677 24.3236 17.3927 24.3236 20.8593V21.5093C23.6013 21.6538 23.0597 22.0871 22.6986 22.8093C22.3375 23.5316 22.2652 24.2177 22.4819 24.8677C22.6986 25.5177 23.168 26.0593 23.8902 26.4927V28.4427C23.8902 29.1649 24.143 29.7788 24.6486 30.2843C25.1541 30.7899 25.768 31.0427 26.4902 31.0427C26.7791 33.7871 27.9347 36.026 29.9569 37.7593L31.0402 38.4093V40.7927L21.2902 42.7427C18.5458 43.3205 16.343 44.3677 14.6819 45.8843C13.0208 47.401 12.1902 49.3871 12.1902 51.8427V61.5927C12.1902 62.7482 12.5875 63.6871 13.3819 64.4093C14.1763 65.1316 15.0791 65.4927 16.0902 65.4927H58.3402C59.3513 65.4927 60.2541 65.1316 61.0486 64.4093C61.843 63.6871 62.2402 62.7482 62.2402 61.5927V51.8427C62.2402 49.3871 61.4097 47.401 59.7486 45.8843C58.0875 44.3677 55.8847 43.3205 53.1402 42.7427ZM45.1236 43.176C44.2569 44.476 43.318 45.8482 42.3069 47.2927C42.018 47.5816 41.7291 47.7982 41.4402 47.9427C41.1513 48.0871 40.8625 48.0871 40.5736 47.9427L39.0569 47.076C41.368 45.776 42.7402 44.3316 43.1736 42.7427L45.1236 43.176ZM37.1069 45.9927C36.0958 45.4149 35.2291 44.8371 34.5069 44.2593C33.3513 43.2482 32.7736 42.3816 32.7736 41.6593V39.4927C35.6625 40.7927 38.5513 40.7927 41.4402 39.4927V41.6593C41.4402 42.3816 40.9347 43.2482 39.9236 44.2593C39.2013 44.8371 38.2625 45.4149 37.1069 45.9927ZM26.2736 20.8593C26.2736 18.8371 26.7791 17.0316 27.7902 15.4427C28.8013 13.8538 30.1013 12.626 31.6902 11.7593V12.8427C31.6902 13.276 31.8347 13.5649 32.1236 13.7093C32.4125 13.8538 32.7375 13.8538 33.0986 13.7093C33.4597 13.5649 33.6402 13.276 33.6402 12.8427V10.8927C34.5069 10.6038 35.3736 10.4593 36.2402 10.4593V15.0093C36.2402 15.4427 36.3847 15.7316 36.6736 15.876C36.9625 16.0205 37.2875 16.0205 37.6486 15.876C38.0097 15.7316 38.1902 15.4427 38.1902 15.0093V10.4593C39.0569 10.4593 39.9236 10.6038 40.7902 10.8927V12.8427C40.7902 13.276 40.9708 13.5649 41.3319 13.7093C41.693 13.8538 42.018 13.8538 42.3069 13.7093C42.5958 13.5649 42.7402 13.276 42.7402 12.8427V11.7593C44.3291 12.626 45.6291 13.8538 46.6402 15.4427C47.6513 17.0316 48.1569 18.8371 48.1569 20.8593V21.5093H26.2736V20.8593ZM24.9736 23.4593H49.4569C49.8902 23.4593 50.1069 23.676 50.1069 24.1093C50.1069 24.5427 49.8902 24.7593 49.4569 24.7593H24.9736C24.5402 24.7593 24.3236 24.5427 24.3236 24.1093C24.3236 23.676 24.5402 23.4593 24.9736 23.4593ZM28.2236 30.176C28.2236 29.8871 28.1513 29.6705 28.0069 29.526C27.8625 29.3816 27.6458 29.3093 27.3569 29.3093H27.1402C26.2736 29.3093 25.8402 29.0205 25.8402 28.4427V26.7093H48.5902V28.4427C48.5902 29.0205 48.1569 29.3093 47.2902 29.3093H47.0736C46.7847 29.3093 46.568 29.3816 46.4236 29.526C46.2791 29.6705 46.2069 29.8871 46.2069 30.176C46.0625 32.6316 45.0875 34.6538 43.2819 36.2427C41.4763 37.8316 39.4541 38.626 37.2152 38.626C34.9763 38.626 32.9541 37.8316 31.1486 36.2427C29.343 34.6538 28.368 32.6316 28.2236 30.176ZM31.2569 42.7427C31.6902 44.3316 33.0625 45.776 35.3736 47.076L34.0736 47.726C33.7847 47.8705 33.4597 47.9427 33.0986 47.9427C32.7375 47.9427 32.4125 47.726 32.1236 47.2927L29.3069 43.176L31.2569 42.7427ZM20.2069 63.5427H16.0902C15.5125 63.5427 15.043 63.3621 14.6819 63.001C14.3208 62.6399 14.1402 62.1705 14.1402 61.5927V51.8427C14.1402 49.0982 15.5125 47.076 18.2569 45.776L18.4736 46.2093C19.6291 49.9649 20.2069 53.7927 20.2069 57.6927V63.5427ZM36.2402 63.5427H22.1569V57.6927C22.1569 53.5038 21.5069 49.4593 20.2069 45.5593L19.9902 45.126L27.1402 43.6093L34.9402 54.876C35.8069 56.0316 36.2402 57.3316 36.2402 58.776V63.5427ZM37.1069 54.876C36.9625 54.4427 36.7458 54.0816 36.4569 53.7927L33.8569 49.8927C34.1458 49.8927 34.4347 49.7482 34.7236 49.4593L37.1069 48.1593L39.7069 49.4593C39.9958 49.7482 40.2847 49.8927 40.5736 49.8927L37.7569 53.7927L37.1069 54.876ZM60.2902 61.5927C60.2902 62.1705 60.0736 62.6399 59.6402 63.001C59.2069 63.3621 58.7736 63.5427 58.3402 63.5427H54.2236V60.076C54.2236 59.6427 54.0791 59.3538 53.7902 59.2093C53.5013 59.0649 53.1763 59.0649 52.8152 59.2093C52.4541 59.3538 52.2736 59.6427 52.2736 60.076V63.5427H38.1902V58.776C38.1902 57.3316 38.6236 56.0316 39.4902 54.876L47.2902 43.6093L54.4402 45.126L54.2236 45.5593C53.068 49.026 52.418 52.5649 52.2736 56.176C52.2736 56.6093 52.4541 56.8982 52.8152 57.0427C53.1763 57.1871 53.5013 57.1871 53.7902 57.0427C54.0791 56.8982 54.2236 56.6093 54.2236 56.176C54.368 52.8538 54.9458 49.5316 55.9569 46.2093L56.1736 45.776C58.918 47.076 60.2902 49.0982 60.2902 51.8427V61.5927Z" fill="black"/>
</svg>
