<svg width="66" height="55" viewBox="0 0 66 55" fill="none" xmlns="http://www.w3.org/2000/svg">
<path d="M65.293 51.3259V50.4592C65.293 50.1704 65.1846 49.9537 64.968 49.8092C64.7513 49.6648 64.5346 49.5926 64.318 49.5926C64.1013 49.5926 63.8846 49.6648 63.668 49.8092C63.4513 49.9537 63.343 50.1704 63.343 50.4592V51.5426C63.4874 51.687 63.4874 51.8315 63.343 51.9759C63.1985 52.1204 62.9819 52.1926 62.693 52.1926H57.2763V35.0759L58.793 35.7259C59.9485 36.1592 60.9235 36.8815 61.718 37.8926C62.5124 38.9037 62.9096 39.987 62.9096 41.1426L63.1263 44.8259C63.1263 44.9704 63.2346 45.1509 63.4513 45.3676C63.668 45.5842 63.8846 45.6926 64.1013 45.6926C64.318 45.6926 64.5346 45.5842 64.7513 45.3676C64.968 45.1509 65.0763 44.8981 65.0763 44.6092L64.8596 41.1426C64.7152 39.5537 64.1374 38.0731 63.1263 36.7009C62.1152 35.3287 60.8874 34.4259 59.443 33.9926L48.8263 30.3092C48.2485 30.1648 47.8152 30.237 47.5263 30.5259L47.3096 30.7426L45.143 29.8759V27.9259C45.7207 27.637 46.2985 27.2037 46.8763 26.6259V26.4092C48.3207 24.9648 49.1874 23.3037 49.4763 21.4259L49.693 20.5592H50.1263C50.7041 20.5592 51.2096 20.3787 51.643 20.0176C52.0763 19.6565 52.293 19.1148 52.293 18.3926V15.7926C52.4374 15.5037 52.5096 15.2148 52.5096 14.9259V13.8426C52.5096 13.4092 52.3652 13.0481 52.0763 12.7592C51.7874 12.4704 51.4985 12.2537 51.2096 12.1092V11.6759C51.0652 9.22036 50.1624 7.12591 48.5013 5.39258C46.8402 3.65924 44.9263 2.64813 42.7596 2.35925L41.4596 1.05925L39.293 0.842579L38.2096 1.27591L37.1263 2.35925C34.9596 2.64813 33.0819 3.58702 31.493 5.17591C30.6263 6.04258 29.9763 7.05369 29.543 8.20924L24.1263 3.22591C23.5485 2.64813 22.8985 2.35925 22.1763 2.35925C21.4541 2.35925 20.8041 2.64813 20.2263 3.22591L14.3763 8.64258V7.99258C14.3763 7.55925 14.2319 7.23425 13.943 7.01758C13.6541 6.80091 13.3652 6.69258 13.0763 6.69258H8.74297C8.30964 6.69258 7.94852 6.80091 7.65964 7.01758C7.37075 7.23425 7.2263 7.55925 7.2263 7.99258V15.3592L1.15964 20.9926C0.581858 21.5704 0.292969 22.2565 0.292969 23.0509C0.292969 23.8454 0.545747 24.5315 1.0513 25.1092C1.55686 25.687 2.24297 25.9759 3.10964 25.9759C3.83186 25.9759 4.48186 25.687 5.05964 25.1092L7.2263 23.1592V29.6592C7.2263 29.9481 7.29852 30.2009 7.44297 30.4176C7.58741 30.6342 7.80408 30.7426 8.09297 30.7426C8.38186 30.7426 8.59852 30.6342 8.74297 30.4176C8.88741 30.2009 8.95964 29.9481 8.95964 29.6592V21.4259L22.1763 9.07591L27.3763 14.0592V15.1426C27.5207 15.287 27.593 15.5037 27.593 15.7926V18.3926C27.593 19.1148 27.8096 19.6565 28.243 20.0176C28.6763 20.3787 29.1819 20.5592 29.7596 20.5592H30.193L30.4096 22.2926C30.5541 22.8704 30.7707 23.4481 31.0596 24.0259L31.493 24.6759L34.743 28.1426V29.8759L32.5763 30.7426L32.3596 30.5259C32.2152 30.3815 31.9263 30.237 31.493 30.0926L27.3763 31.3926V24.8926C27.3763 24.4592 27.2319 24.0981 26.943 23.8092C26.6541 23.5204 26.293 23.3759 25.8596 23.3759H18.493C18.0596 23.3759 17.6985 23.5204 17.4096 23.8092C17.1207 24.0981 16.9763 24.4592 16.9763 24.8926V36.1592L15.0263 41.1426H8.95964V35.5092C8.95964 35.2204 8.88741 35.0037 8.74297 34.8592C8.59852 34.7148 8.38186 34.6426 8.09297 34.6426C7.80408 34.6426 7.58741 34.7148 7.44297 34.8592C7.29852 35.0037 7.2263 35.2204 7.2263 35.5092V41.1426C7.2263 41.5759 7.40686 41.9731 7.76797 42.3342C8.12908 42.6954 8.59852 42.8759 9.1763 42.8759H15.0263L14.593 51.3259C14.593 52.0481 14.8457 52.6981 15.3513 53.2759C15.8569 53.8537 16.4707 54.1426 17.193 54.1426H62.693C63.4152 54.1426 64.0291 53.8537 64.5346 53.2759C65.0402 52.6981 65.293 52.0481 65.293 51.3259ZM50.343 18.3926C50.343 18.6815 50.2707 18.8259 50.1263 18.8259H49.693V16.6592H50.343V18.3926ZM38.643 3.44258L38.8596 3.00924L39.293 2.79258H40.593L40.8096 3.00924L41.243 3.44258V6.69258C41.243 6.98147 41.1707 7.19813 41.0263 7.34258C40.8819 7.48702 40.6652 7.55925 40.3763 7.55925H39.5096C39.2207 7.55925 39.0041 7.48702 38.8596 7.34258C38.7152 7.19813 38.643 6.98147 38.643 6.69258V3.44258ZM12.643 8.42591V10.3759L9.1763 13.6259V8.42591H12.643ZM28.893 10.1592C28.893 10.3037 28.893 10.4481 28.893 10.5926L28.6763 12.1092L28.243 12.3259L22.8263 7.12591C22.6819 6.98147 22.4652 6.90924 22.1763 6.90924C21.8874 6.90924 21.6707 6.98147 21.5263 7.12591L3.75964 23.8092C3.61519 24.0981 3.39852 24.2065 3.10964 24.1342C2.82075 24.062 2.56797 23.9537 2.3513 23.8092C2.13464 23.6648 2.06241 23.4481 2.13464 23.1592C2.20686 22.8704 2.31519 22.5815 2.45964 22.2926L21.5263 4.52591C21.6707 4.38147 21.8874 4.30925 22.1763 4.30925C22.4652 4.30925 22.6819 4.38147 22.8263 4.52591L28.893 10.1592ZM29.7596 18.8259C29.6152 18.8259 29.543 18.6815 29.543 18.3926V16.6592H30.193V18.8259H29.7596ZM29.3263 14.4926V14.0592H29.543C29.8319 14.0592 30.0846 13.9509 30.3013 13.7342C30.518 13.5176 30.6263 13.2648 30.6263 12.9759V11.8926L30.843 9.94258C31.1319 8.64258 31.818 7.45091 32.9013 6.36758C33.9846 5.28424 35.3207 4.59813 36.9096 4.30925V6.69258C36.9096 7.4148 37.1624 8.02869 37.668 8.53424C38.1735 9.0398 38.7874 9.29258 39.5096 9.29258H40.3763C41.0985 9.29258 41.7124 9.0398 42.218 8.53424C42.7235 8.02869 42.9763 7.4148 42.9763 6.69258V4.30925C44.5652 4.59813 45.9374 5.32035 47.093 6.47591C48.5374 7.92036 49.2596 9.72591 49.2596 11.8926V12.9759C49.2596 13.2648 49.368 13.5176 49.5846 13.7342C49.8013 13.9509 50.0541 14.0592 50.343 14.0592H50.5596V14.4926H29.3263ZM32.143 20.7759V16.6592H47.743V20.9926C47.5985 22.0037 47.2013 22.9787 46.5513 23.9176C45.9013 24.8565 45.143 25.687 44.2763 26.4092L43.843 26.8426C43.2652 27.1315 42.6874 27.3481 42.1096 27.4926C41.0985 27.637 40.3402 27.7092 39.8346 27.7092C39.3291 27.7092 38.643 27.637 37.7763 27.4926C37.1985 27.3481 36.6207 27.1315 36.043 26.8426L35.8263 26.6259C34.8152 25.9037 33.9846 25.0009 33.3346 23.9176C32.6846 22.8342 32.2874 21.787 32.143 20.7759ZM35.6096 31.3926C36.1874 31.2481 36.4763 30.8148 36.4763 30.0926V29.0092L37.1263 29.2259C38.2819 29.5148 39.1846 29.6592 39.8346 29.6592C40.4846 29.6592 41.3874 29.5148 42.543 29.2259L43.4096 29.0092V30.0926C43.4096 30.8148 43.6985 31.2481 44.2763 31.3926L45.793 32.2592L41.4596 33.9926L37.1263 33.7759L34.093 32.2592L35.6096 31.3926ZM17.193 52.1926C16.9041 52.1926 16.6874 52.1204 16.543 51.9759C16.3985 51.8315 16.3985 51.687 16.543 51.5426L16.9763 41.1426C16.9763 39.6981 17.5541 38.3981 18.7096 37.2426C19.2874 36.6648 19.9374 36.1592 20.6596 35.7259L22.6096 35.0759V52.1926H17.193ZM23.043 32.9092L20.443 33.9926L18.9263 34.6426V25.1092H25.4263V32.0426L23.043 32.9092ZM24.343 52.1926V34.4259L30.4096 32.2592L31.2763 35.7259C31.5652 37.1704 32.2874 38.2537 33.443 38.9759L39.0763 42.4426V52.1926H24.343ZM34.3096 37.4592C33.5874 37.0259 33.1541 36.3759 33.0096 35.5092L32.5763 33.3426C34.743 35.0759 37.1985 35.9426 39.943 35.9426C40.6652 35.9426 41.3874 35.8704 42.1096 35.7259C44.1319 35.437 45.8652 34.6426 47.3096 33.3426L46.8763 35.5092C46.7319 36.3759 46.2985 37.0259 45.5763 37.4592L39.943 40.9259L34.3096 37.4592ZM55.543 52.1926H40.8096V42.4426L46.443 38.9759C47.5985 38.2537 48.3207 37.1704 48.6096 35.7259L49.4763 32.2592L55.543 34.4259V52.1926Z" fill="black"/>
</svg>
