<svg width="52" height="52" viewBox="0 0 52 52" fill="none" xmlns="http://www.w3.org/2000/svg">
<path d="M50.2682 20.5762H46.8828C46.3682 18.6126 45.5963 16.7439 44.5537 14.997L46.9641 12.5865C47.4922 12.0584 47.4922 11.2053 46.9641 10.6772L41.2089 4.922C40.6807 4.39387 39.8276 4.39387 39.2995 4.922L36.8891 7.33238C35.1422 6.28973 33.2735 5.51784 31.3099 5.00325V1.61784C31.3099 0.87306 30.7005 0.263672 29.9557 0.263672H21.8307C21.086 0.263672 20.4766 0.87306 20.4766 1.61784V5.00325C18.513 5.51784 16.6442 6.28973 14.8974 7.33238L12.4869 4.922C11.9589 4.39387 11.1057 4.39387 10.5776 4.922L4.8224 10.6772C4.29426 11.2053 4.29426 12.0584 4.8224 12.5865L7.23277 14.997C6.19012 16.7439 5.41823 18.6126 4.90365 20.5762H1.51823C0.773451 20.5762 0.164062 21.1856 0.164062 21.9303V30.0553C0.164062 30.8001 0.773451 31.4095 1.51823 31.4095H4.90365C5.41823 33.3731 6.19012 35.2417 7.23277 36.9887L4.8224 39.399C4.29426 39.9272 4.29426 40.7803 4.8224 41.3085L10.5776 47.0637C11.1057 47.5918 11.9589 47.5918 12.4869 47.0637L14.8974 44.6532C16.6442 45.6959 18.513 46.4678 20.4766 46.9824V50.3678C20.4766 51.1126 21.086 51.722 21.8307 51.722H29.9557C30.7005 51.722 31.3099 51.1126 31.3099 50.3678V46.9824C33.2734 46.4678 35.1422 45.6959 36.8891 44.6532L39.2995 47.0637C39.8276 47.5918 40.6807 47.5918 41.2089 47.0637L46.9641 41.3085C47.4922 40.7803 47.4922 39.9272 46.9641 39.399L44.5537 36.9887C45.5963 35.2417 46.3682 33.3731 46.8828 31.4095H50.2682C51.013 31.4095 51.6224 30.8001 51.6224 30.0553V21.9303C51.6224 21.1856 51.013 20.5762 50.2682 20.5762ZM48.9141 28.7012H45.7995C45.1494 28.7012 44.5943 29.148 44.4724 29.7845C43.9849 32.1543 43.064 34.4022 41.7099 36.447C41.3442 36.9751 41.4255 37.6929 41.8724 38.1397L44.0932 40.3605L40.2609 44.1928L38.0401 41.972C37.5932 41.5251 36.8755 41.4574 36.3474 41.8095C34.3026 43.1637 32.0547 44.0845 29.6849 44.572C29.0485 44.6939 28.6016 45.249 28.6016 45.8991V49.0137H23.1849V45.8991C23.1849 45.249 22.738 44.6939 22.1016 44.572C19.7318 44.0845 17.4838 43.1637 15.4391 41.8095C14.911 41.4574 14.1932 41.5251 13.7464 41.972L11.5255 44.1928L7.69323 40.3605L9.91408 38.1397C10.361 37.6929 10.4422 36.9751 10.0766 36.447C8.72241 34.4022 7.80159 32.1543 7.3141 29.7845C7.19219 29.148 6.63702 28.7012 5.98697 28.7012H2.8724V23.2845H5.98697C6.63702 23.2845 7.19219 22.8376 7.3141 22.2012C7.80159 19.8314 8.72241 17.5834 10.0766 15.5386C10.4422 15.0106 10.361 14.2928 9.91408 13.8459L7.69323 11.6252L11.5255 7.79284L13.7464 10.0137C14.1932 10.4605 14.911 10.5282 15.4391 10.1762C17.4838 8.82202 19.7318 7.9012 22.1016 7.41363C22.738 7.2918 23.1849 6.73655 23.1849 6.08657V2.97201H28.6016V6.08657C28.6016 6.73655 29.0485 7.2918 29.6849 7.41363C32.0547 7.9012 34.3026 8.82202 36.3474 10.1762C36.8755 10.5282 37.5932 10.4605 38.0401 10.0137L40.2609 7.79284L44.0932 11.6252L41.8724 13.8459C41.4255 14.2928 41.3442 15.0106 41.7099 15.5386C43.064 17.5834 43.9849 19.8314 44.4724 22.2012C44.5943 22.8376 45.1494 23.2845 45.7995 23.2845H48.9141V28.7012Z" fill="black"/>
<path d="M36.6724 22.1605C36.4151 19.6959 35.3317 17.4074 33.5578 15.6199C32.5151 14.5907 31.2828 13.7918 29.9557 13.2501V12.4512C29.9557 10.2168 28.1276 8.38867 25.8932 8.38867C23.6588 8.38867 21.8307 10.2168 21.8307 12.4512V13.2501C20.5037 13.7918 19.2713 14.5907 18.2287 15.6199C16.4547 17.4074 15.3713 19.6959 15.114 22.1605C14.5317 22.3501 13.9901 22.6751 13.5568 23.1085C12.7849 23.8668 12.3516 24.896 12.3516 25.9928C12.3516 27.7532 13.4891 29.2428 15.0599 29.8116V36.5553C15.0599 36.9345 15.2224 37.3001 15.4932 37.5574L18.7297 40.5366C18.987 40.7668 19.312 40.8887 19.6505 40.8887C19.9755 40.8887 20.3005 40.7668 20.5578 40.5366L24.1057 37.273C24.3766 37.0158 24.5391 36.6637 24.5391 36.2845C24.5391 35.9053 24.3766 35.5397 24.1057 35.2824L22.7651 34.0636V30.0554H29.0214V34.0636L27.6807 35.2824C27.4099 35.5397 27.2474 35.9053 27.2474 36.2845C27.2474 36.6637 27.4099 37.0158 27.6807 37.273L31.2287 40.5366C31.486 40.7668 31.8109 40.8887 32.1359 40.8887C32.4745 40.8887 32.7995 40.7668 33.0567 40.5366L36.2932 37.5574C36.5641 37.3001 36.7266 36.9345 36.7266 36.5553V29.8116C37.2953 29.6084 37.8099 29.297 38.2297 28.8772C39.0016 28.1189 39.4349 27.0897 39.4349 25.9929C39.4349 24.2053 38.2703 22.7022 36.6724 22.1605ZM24.539 12.4512C24.539 11.7064 25.1484 11.097 25.8932 11.097C26.638 11.097 27.2474 11.7064 27.2474 12.4512V16.5137H24.539V12.4512ZM19.6505 37.6929L17.7682 35.9595V30.0553H20.0568V34.6595C20.0568 35.0251 20.2193 35.3908 20.5037 35.648L21.1807 36.2845L19.6505 37.6929ZM34.0182 35.9595L32.1359 37.6929L30.6057 36.2845L31.2828 35.6481C31.5672 35.3908 31.7297 35.0251 31.7297 34.6595V30.0554H34.0182L34.0182 35.9595ZM36.3068 26.9543C36.063 27.2115 35.738 27.347 35.3724 27.347H16.414C15.6693 27.347 15.0599 26.7376 15.0599 25.9929C15.0599 25.6272 15.1953 25.3022 15.4797 25.0314C15.7234 24.7741 16.0484 24.6387 16.414 24.6387H20.4765C21.2213 24.6387 21.8307 24.0293 21.8307 23.2845C21.8307 22.5397 21.2213 21.9304 20.4765 21.9304H17.8901C18.1609 20.2782 18.9328 18.748 20.1516 17.5429C20.6526 17.0283 21.2213 16.6085 21.8307 16.2564V17.8679C21.8307 18.6126 22.4401 19.222 23.1849 19.222H28.6015C29.3463 19.222 29.9557 18.6126 29.9557 17.8679V16.2564C30.5651 16.6085 31.1338 17.0283 31.6349 17.5429C32.8536 18.748 33.6255 20.2782 33.8963 21.9304H31.3099C30.5651 21.9304 29.9557 22.5397 29.9557 23.2845C29.9557 24.0293 30.5651 24.6387 31.3099 24.6387H35.3724C36.1172 24.6387 36.7265 25.2481 36.7265 25.9929C36.7265 26.3584 36.5912 26.6835 36.3068 26.9543Z" fill="black"/>
<path d="M25.8932 24.6385C26.6411 24.6385 27.2474 24.0322 27.2474 23.2843C27.2474 22.5365 26.6411 21.9302 25.8932 21.9302C25.1453 21.9302 24.5391 22.5365 24.5391 23.2843C24.5391 24.0322 25.1453 24.6385 25.8932 24.6385Z" fill="black"/>
</svg>
