<svg width="66" height="66" viewBox="0 0 66 66" fill="none" xmlns="http://www.w3.org/2000/svg">
<path d="M54.0757 8.84282C52.6313 8.55393 51.259 8.7706 49.959 9.49282C48.659 10.215 47.7924 11.3345 47.359 12.8512C46.9257 14.3678 47.1063 15.7762 47.9007 17.0762C48.6951 18.3762 49.8146 19.2428 51.259 19.6762C51.6924 19.8206 52.1257 19.8928 52.559 19.8928C53.5701 19.8928 54.509 19.6039 55.3757 19.0262C56.6757 18.3039 57.5424 17.1845 57.9757 15.6678C58.409 14.1512 58.2285 12.7428 57.434 11.4428C56.6396 10.1428 55.5201 9.27615 54.0757 8.84282ZM54.509 17.2928C53.6424 17.8706 52.7035 18.015 51.6924 17.7262C50.6813 17.4373 49.959 16.8595 49.5257 15.9928C49.0924 15.1262 48.984 14.2234 49.2007 13.2845C49.4174 12.3456 49.959 11.6595 50.8257 11.2262C51.4035 10.7928 51.9813 10.5762 52.559 10.5762L53.6424 10.7928C54.509 11.0817 55.1951 11.6595 55.7007 12.5262C56.2063 13.3928 56.3507 14.2956 56.134 15.2345C55.9174 16.1734 55.3757 16.8595 54.509 17.2928ZM65.1257 17.0762L63.1757 15.5595C63.3201 14.5484 63.3201 13.5373 63.1757 12.5262L64.909 11.0095C65.1979 10.7206 65.4146 10.3234 65.559 9.81782C65.7035 9.31227 65.6312 8.91504 65.3424 8.62616L63.8257 5.80949C63.5368 5.37616 63.1757 5.08727 62.7424 4.94282C62.309 4.79838 61.8757 4.79838 61.4424 4.94282L59.059 5.80949C58.3368 5.08727 57.4701 4.58171 56.459 4.29282L56.0257 2.12616C55.8813 1.54838 55.6285 1.11504 55.2674 0.826157C54.9062 0.53727 54.509 0.392822 54.0757 0.392822H51.0424C50.4646 0.392822 49.9951 0.53727 49.634 0.826157C49.2729 1.11504 49.0201 1.54838 48.8757 2.12616L48.4424 4.29282C47.5757 4.72615 46.709 5.30393 45.8424 6.02615L43.8924 5.15949C43.3146 5.01505 42.809 5.05116 42.3757 5.26782C41.9424 5.48449 41.5813 5.80949 41.2924 6.24282L39.7757 8.84282C39.6313 9.27615 39.5951 9.70949 39.6674 10.1428C39.7396 10.5762 39.9201 11.0095 40.209 11.4428L41.9424 12.9595C41.7979 13.9706 41.8701 14.9817 42.159 15.9928L40.4257 17.5095C39.9924 17.7984 39.7396 18.1956 39.6674 18.7012C39.5951 19.2067 39.7035 19.6762 39.9924 20.1095L41.509 22.7095C41.7979 23.1428 42.159 23.4317 42.5924 23.5762C43.0257 23.7206 43.459 23.7206 43.8924 23.5762L46.059 22.7095C46.9257 23.4317 47.8646 23.9373 48.8757 24.2262L49.309 26.3928C49.309 26.9706 49.5257 27.4039 49.959 27.6928C50.3924 27.9817 50.8257 28.1262 51.259 28.1262H54.2924C54.7257 28.1262 55.159 27.9817 55.5924 27.6928C56.0257 27.4039 56.2424 26.9706 56.2424 26.3928L56.6757 24.2262C57.6868 23.7928 58.6257 23.215 59.4924 22.4928L61.4424 23.3595C61.8757 23.5039 62.3451 23.4678 62.8507 23.2512C63.3562 23.0345 63.6812 22.7817 63.8257 22.4928L65.559 19.6762C65.7035 19.2428 65.7396 18.8095 65.6674 18.3762C65.5951 17.9428 65.4146 17.5095 65.1257 17.0762ZM63.8257 18.8095L62.309 21.4095H62.0924L59.4924 20.5428C59.2035 20.3984 58.9146 20.4706 58.6257 20.7595C57.759 21.6262 56.7479 22.2039 55.5924 22.4928C55.3035 22.6373 55.0868 22.9262 54.9424 23.3595L54.509 26.1762H54.2924H51.259H51.0424L50.609 23.3595C50.609 23.0706 50.3924 22.8539 49.959 22.7095C48.8035 22.2762 47.7924 21.6984 46.9257 20.9762C46.6368 20.8317 46.3479 20.7595 46.059 20.7595L43.2424 21.8428L41.7257 19.0262C41.5813 19.0262 41.5813 18.9539 41.7257 18.8095L43.6757 17.0762C43.9646 16.7873 44.109 16.4984 44.109 16.2095C43.8201 15.0539 43.7479 13.8984 43.8924 12.7428C44.0368 12.3095 43.9646 12.0206 43.6757 11.8762L41.509 9.92616C41.509 9.92616 41.509 9.85393 41.509 9.70949L43.0257 7.10949H43.2424L45.8424 7.97615C46.1313 8.1206 46.4201 8.04838 46.709 7.75949C47.5757 6.89282 48.5868 6.31504 49.7424 6.02615C50.0312 5.88171 50.2479 5.59282 50.3924 5.15949L50.8257 2.34282H51.0424H54.0757L54.7257 5.15949C54.7257 5.44838 54.9424 5.66504 55.3757 5.80949C56.5312 6.24282 57.5424 6.8206 58.409 7.54282C58.6979 7.83171 58.9868 7.90393 59.2757 7.75949L62.0924 6.67616V6.89282L63.609 9.49282C63.7535 9.49282 63.7535 9.56504 63.609 9.70949L61.659 11.4428C61.3701 11.7317 61.2257 12.0206 61.2257 12.3095C61.5146 13.465 61.5146 14.6206 61.2257 15.7762C61.2257 16.2095 61.3701 16.4984 61.659 16.6428L63.8257 18.5928C63.8257 18.5928 63.8257 18.665 63.8257 18.8095ZM14.6424 34.6262C14.6424 33.7595 14.3174 33.0373 13.6674 32.4595C13.0174 31.8817 12.259 31.5928 11.3924 31.5928H10.959V26.8262C10.959 26.2484 10.7785 25.9234 10.4174 25.8512C10.0563 25.7789 9.69514 25.8512 9.33403 26.0678C8.97292 26.2845 8.86458 26.6095 9.00903 27.0428V31.5928H6.19236V15.1262C6.19236 14.9817 6.19236 14.8373 6.19236 14.6928L3.80903 10.7928V5.80949H11.3924V10.7928L9.22569 14.6928C9.08125 14.8373 9.00903 14.9817 9.00903 15.1262V21.4095C8.86458 21.8428 8.97292 22.1678 9.33403 22.3845C9.69514 22.6012 10.0563 22.6373 10.4174 22.4928C10.7785 22.3484 10.959 22.0595 10.959 21.6262V15.3428L13.1257 11.4428C13.2701 11.2984 13.3424 11.1539 13.3424 11.0095V1.25949C13.3424 1.11504 13.234 0.934486 13.0174 0.717819C12.8007 0.501152 12.5479 0.392822 12.259 0.392822H2.94236C2.65347 0.392822 2.43681 0.501152 2.29236 0.717819C2.14792 0.934486 2.07569 1.18726 2.07569 1.47615V11.0095C2.07569 11.1539 2.07569 11.3706 2.07569 11.6595L4.45903 15.3428V31.5928H3.80903C2.65347 31.5928 1.82292 32.0623 1.31736 33.0012C0.811806 33.94 0.739583 34.9512 1.10069 36.0345C1.46181 37.1178 2.22014 37.7317 3.37569 37.8762V56.9428C3.37569 58.2428 3.80903 59.29 4.67569 60.0845C5.54236 60.8789 6.55347 61.2762 7.70903 61.2762C8.86458 61.2762 9.8757 60.8789 10.7424 60.0845C11.609 59.29 12.0424 58.2428 12.0424 56.9428V37.8762C12.7646 37.7317 13.3785 37.3706 13.884 36.7928C14.3896 36.215 14.6424 35.4928 14.6424 34.6262ZM3.80903 3.85949V2.34282H11.3924V3.85949H3.80903ZM7.70903 59.3262C6.98681 59.3262 6.37292 59.0734 5.86736 58.5678C5.36181 58.0623 5.10903 57.5206 5.10903 56.9428L5.32569 37.8762H10.0924V56.9428C10.0924 57.5206 9.83958 58.0623 9.33403 58.5678C8.82847 59.0734 8.28681 59.3262 7.70903 59.3262ZM11.3924 35.9262H3.80903C3.37569 35.9262 3.05069 35.7095 2.83403 35.2762C2.61736 34.8428 2.61736 34.4095 2.83403 33.9762C3.05069 33.5428 3.37569 33.3262 3.80903 33.3262H11.3924C11.9701 33.3262 12.3313 33.5428 12.4757 33.9762C12.6201 34.4095 12.6201 34.8428 12.4757 35.2762C12.3313 35.7095 11.9701 35.9262 11.3924 35.9262ZM61.659 54.3428V50.2262C61.659 46.7595 60.9368 43.4734 59.4924 40.3678C58.0479 37.2623 55.9535 34.6262 53.209 32.4595C52.9201 32.1706 52.559 32.0262 52.1257 32.0262C51.6924 32.0262 51.3313 32.1706 51.0424 32.4595C49.0201 31.015 46.7812 29.9317 44.3257 29.2095C44.4701 28.4873 44.3257 28.0539 43.8924 27.9095C42.3035 27.0428 40.6785 26.6095 39.0174 26.6095C37.3563 26.6095 35.7313 27.0428 34.1424 27.9095C33.709 28.0539 33.5646 28.4873 33.709 29.2095C32.5535 29.4984 31.4701 29.9317 30.459 30.5095V19.2428C34.359 18.2317 36.3813 15.7762 36.5257 11.8762C36.5257 9.85393 35.9479 7.75949 34.7924 5.59282C33.6368 3.42616 32.2646 1.76505 30.6757 0.609489C29.809 0.320602 29.3035 0.609489 29.159 1.47615V9.27615C29.0146 9.70949 28.7257 9.92616 28.2924 9.92616H24.3924C24.2479 9.92616 24.1035 9.85393 23.959 9.70949C23.8146 9.56504 23.7424 9.4206 23.7424 9.27615V1.25949C23.5979 0.53727 23.0924 0.320602 22.2257 0.609489C20.4924 1.6206 19.084 3.20949 18.0007 5.37616C16.9174 7.54282 16.3757 9.70949 16.3757 11.8762C16.3757 15.7762 18.3257 18.2317 22.2257 19.2428V35.0595C20.2035 37.0817 18.6868 39.3928 17.6757 41.9928C16.6646 44.5928 16.159 47.3373 16.159 50.2262V54.3428C15.0035 54.7762 14.2812 55.5345 13.9924 56.6178C13.7035 57.7012 13.8479 58.7484 14.4257 59.7595C15.0035 60.7706 15.9424 61.2762 17.2424 61.2762C19.8424 61.2762 22.4424 61.9623 25.0424 63.3345C27.6424 64.7067 30.3146 65.3928 33.059 65.3928H44.759C47.6479 65.3928 50.3924 64.7067 52.9924 63.3345C55.5924 61.9623 58.1924 61.2762 60.7924 61.2762C62.0924 61.2762 63.0312 60.7706 63.609 59.7595C64.1868 58.7484 64.3312 57.7012 64.0424 56.6178C63.7535 55.5345 62.959 54.7762 61.659 54.3428ZM50.3924 34.1928V45.2428C50.3924 45.5317 50.4646 45.7845 50.609 46.0012C50.7535 46.2178 50.9701 46.3262 51.259 46.3262C51.5479 46.3262 51.7646 46.2178 51.909 46.0012C52.0535 45.7845 52.1257 45.5317 52.1257 45.2428V34.1928C54.5813 36.215 56.4951 38.5984 57.8674 41.3428C59.2396 44.0873 59.9257 47.0484 59.9257 50.2262V54.1262H52.3424L52.1257 50.4428C52.1257 50.1539 52.0535 49.9012 51.909 49.6845C51.7646 49.4678 51.5479 49.3595 51.259 49.3595C50.9701 49.3595 50.7535 49.4678 50.609 49.6845C50.4646 49.9012 50.3924 50.1539 50.3924 50.4428V54.1262H44.3257V31.3762C46.4924 31.9539 48.5146 32.8928 50.3924 34.1928ZM42.3757 29.2095V54.1262H35.4424V29.2095C37.7535 28.1984 40.0646 28.1984 42.3757 29.2095ZM33.709 54.1262H27.6424V34.1928C29.5201 32.8928 31.5424 31.9539 33.709 31.3762V54.1262ZM18.3257 11.8762C18.3257 10.4317 18.6507 8.91504 19.3007 7.32616C19.9507 5.73727 20.7812 4.43727 21.7924 3.42616V9.27615C21.7924 9.99838 22.0451 10.6123 22.5507 11.1178C23.0562 11.6234 23.6701 11.8762 24.3924 11.8762H28.2924C29.0146 11.8762 29.6285 11.6234 30.134 11.1178C30.6396 10.6123 30.8924 9.99838 30.8924 9.27615V3.42616C32.0479 4.58171 32.9507 5.91782 33.6007 7.43449C34.2507 8.95116 34.5757 10.4317 34.5757 11.8762C34.5757 15.0539 32.8424 16.9317 29.3757 17.5095C28.7979 17.6539 28.509 17.9428 28.509 18.3762V31.3762L26.7757 32.4595C26.4868 32.1706 26.1618 32.0623 25.8007 32.1345C25.4396 32.2067 25.1146 32.315 24.8257 32.4595L23.959 33.1095L24.1757 18.3762C24.1757 17.9428 23.8868 17.6539 23.309 17.5095C19.9868 16.7873 18.3257 14.9095 18.3257 11.8762ZM25.6924 34.1928V54.1262H18.109V50.2262C18.109 47.0484 18.7951 44.0873 20.1674 41.3428C21.5396 38.5984 23.3813 36.215 25.6924 34.1928ZM61.8757 58.8928C61.5868 59.1817 61.2257 59.3262 60.7924 59.3262C57.9035 59.3262 54.9424 60.1206 51.909 61.7095C49.7424 62.865 47.359 63.4428 44.759 63.4428H33.059C30.6035 63.4428 28.2201 62.865 25.909 61.7095C22.7312 59.9762 19.8424 59.1817 17.2424 59.3262C16.5201 59.3262 16.0507 59.0734 15.834 58.5678C15.6174 58.0623 15.6535 57.5206 15.9424 56.9428C16.2312 56.365 16.6646 56.0762 17.2424 56.0762H60.5757C61.2979 56.0762 61.8396 56.4012 62.2007 57.0512C62.5618 57.7012 62.4535 58.315 61.8757 58.8928Z" fill="black"/>
</svg>
