<svg width="66" height="66" viewBox="0 0 66 66" fill="none" xmlns="http://www.w3.org/2000/svg">
<path fill-rule="evenodd" clip-rule="evenodd" d="M59.3008 19.451C59.3008 16.0385 57.9466 12.7668 55.5335 10.3537C53.1204 7.94059 49.8487 6.58643 46.4362 6.58643H19.3529C15.9404 6.58643 12.6687 7.94059 10.2556 10.3537C7.84245 12.7668 6.48828 16.0385 6.48828 19.451V46.5343C6.48828 49.9468 7.84245 53.2185 10.2556 55.6316C12.6687 58.0448 15.9404 59.3989 19.3529 59.3989H46.4362C49.8487 59.3989 53.1204 58.0448 55.5335 55.6316C57.9466 53.2185 59.3008 49.9468 59.3008 46.5343V19.451ZM55.2383 19.451V46.5343C55.2383 48.8689 54.312 51.1087 52.6599 52.7581C51.0106 54.4102 48.7708 55.3364 46.4362 55.3364H19.3529C17.0183 55.3364 14.7785 54.4102 13.1291 52.7581C11.477 51.1087 10.5508 48.8689 10.5508 46.5343V19.451C10.5508 17.1164 11.477 14.8766 13.1291 13.2273C14.7785 11.5752 17.0183 10.6489 19.3529 10.6489H46.4362C48.7708 10.6489 51.0106 11.5752 52.6599 13.2273C54.312 14.8766 55.2383 17.1164 55.2383 19.451Z" fill="#282828"/>
<path fill-rule="evenodd" clip-rule="evenodd" d="M38.987 28.93C38.987 26.3138 36.8664 24.1904 34.2474 24.1904H31.5391C28.9201 24.1904 26.7995 26.3138 26.7995 28.93C26.7995 31.289 26.7995 34.6961 26.7995 37.055C26.7995 39.6713 28.9201 41.7946 31.5391 41.7946H34.2474C36.8664 41.7946 38.987 39.6713 38.987 37.055V28.93ZM34.9245 28.93V37.055C34.9245 37.4288 34.6211 37.7321 34.2474 37.7321H31.5391C31.1653 37.7321 30.862 37.4288 30.862 37.055V28.93C30.862 28.5563 31.1653 28.2529 31.5391 28.2529H34.2474C34.6211 28.2529 34.9245 28.5563 34.9245 28.93ZM48.4661 36.3779C48.4661 37.1254 47.8595 37.7321 47.112 37.7321H43.7266C42.6053 37.7321 41.6953 38.6421 41.6953 39.7633C41.6953 40.8846 42.6053 41.7946 43.7266 41.7946H47.112C50.1047 41.7946 52.5286 39.3706 52.5286 36.3779C52.5286 33.3852 50.1047 30.9613 47.112 30.9613C46.3645 30.9613 45.7578 30.3546 45.7578 29.6071C45.7578 29.2469 45.9014 28.9029 46.1532 28.6483C46.4078 28.3965 46.7518 28.2529 47.112 28.2529C48.8047 28.2529 50.4974 28.2529 50.4974 28.2529C51.6186 28.2529 52.5286 27.3429 52.5286 26.2217C52.5286 25.1004 51.6186 24.1904 50.4974 24.1904C50.4974 24.1904 48.8047 24.1904 47.112 24.1904C45.6766 24.1904 44.298 24.7619 43.2824 25.7775C42.2668 26.7931 41.6953 28.1717 41.6953 29.6071C41.6953 32.5998 44.1193 35.0238 47.112 35.0238C47.8595 35.0238 48.4661 35.6304 48.4661 36.3779ZM20.0286 36.3779C20.0286 37.1254 19.422 37.7321 18.6745 37.7321H15.2891C14.1678 37.7321 13.2578 38.6421 13.2578 39.7633C13.2578 40.8846 14.1678 41.7946 15.2891 41.7946H18.6745C21.6672 41.7946 24.0911 39.3706 24.0911 36.3779C24.0911 33.3852 21.6672 30.9613 18.6745 30.9613C17.927 30.9613 17.3203 30.3546 17.3203 29.6071C17.3203 29.2469 17.4639 28.9029 17.7157 28.6483C17.9703 28.3965 18.3143 28.2529 18.6745 28.2529C20.3672 28.2529 22.0599 28.2529 22.0599 28.2529C23.1811 28.2529 24.0911 27.3429 24.0911 26.2217C24.0911 25.1004 23.1811 24.1904 22.0599 24.1904C22.0599 24.1904 20.3672 24.1904 18.6745 24.1904C17.2391 24.1904 15.8605 24.7619 14.8449 25.7775C13.8293 26.7931 13.2578 28.1717 13.2578 29.6071C13.2578 32.5998 15.6818 35.0238 18.6745 35.0238C19.422 35.0238 20.0286 35.6304 20.0286 36.3779Z" fill="#282828"/>
</svg>
