<svg width="60" height="56" viewBox="0 0 60 56" fill="none" xmlns="http://www.w3.org/2000/svg">
<path d="M29.8932 9.03418C26.9017 9.03418 24.4766 11.4593 24.4766 14.4508C24.4766 17.4423 26.9017 19.8675 29.8932 19.8675C32.8832 19.8637 35.3061 17.4409 35.3099 14.4508C35.3099 11.4593 32.8847 9.03418 29.8932 9.03418ZM29.8932 17.1592C28.3974 17.1592 27.1849 15.9467 27.1849 14.4508C27.1849 12.955 28.3974 11.7425 29.8932 11.7425C31.3886 11.7435 32.6006 12.9555 32.6016 14.4508C32.6016 15.9467 31.3891 17.1592 29.8932 17.1592ZM29.8932 36.1175C26.9017 36.1175 24.4766 38.5427 24.4766 41.5342C24.4766 44.5257 26.9017 46.9508 29.8932 46.9508C32.8832 46.947 35.3061 44.5242 35.3099 41.5342C35.3099 38.5427 32.8847 36.1175 29.8932 36.1175ZM29.8932 44.2425C28.3974 44.2425 27.1849 43.03 27.1849 41.5342C27.1849 40.0383 28.3974 38.8258 29.8932 38.8258C31.3886 38.8268 32.6006 40.0388 32.6016 41.5342C32.6016 43.03 31.3891 44.2425 29.8932 44.2425ZM59.6849 7.68001C59.6849 7.67952 59.6849 7.68068 59.6849 7.68001C59.6844 6.93268 59.0782 6.32535 58.3307 6.32585H45.8968C45.104 3.21963 42.3123 0.912321 38.9598 0.90918H20.8267C17.4741 0.912321 14.6825 3.21963 13.8897 6.32585H1.45573C1.45523 6.32585 1.45639 6.32585 1.45573 6.32585C0.708392 6.32634 0.101067 6.93251 0.101563 7.68001C0.102885 12.7233 2.61633 17.1726 6.4517 19.8675H1.45573C1.45523 19.8675 1.45639 19.8675 1.45573 19.8675C0.708392 19.868 0.101067 20.4742 0.101563 21.2217C0.102885 26.2649 2.61633 30.7142 6.4517 33.4092H1.45573C1.45523 33.4092 1.45639 33.4092 1.45573 33.4092C0.708392 33.4097 0.101067 34.0158 0.101563 34.7633C0.103546 42.6093 6.17366 49.0234 13.872 49.6022C14.6443 52.738 17.4531 55.0725 20.8267 55.0759H38.9598C42.3333 55.0725 45.1422 52.738 45.9144 49.6022C53.6128 49.0234 59.6829 42.6093 59.6849 34.7633C59.6849 34.7629 59.6849 34.764 59.6849 34.7633C59.6844 34.016 59.0782 33.4087 58.3307 33.4092H53.3348C57.1701 30.7142 59.6836 26.2649 59.6849 21.2217C59.6849 21.2212 59.6849 21.2223 59.6849 21.2217C59.6844 20.4743 59.0782 19.867 58.3307 19.8675H53.3348C57.1701 17.1726 59.6836 12.7233 59.6849 7.68001ZM13.6432 46.8741C7.98522 46.2414 3.51938 41.7755 2.8866 36.1175H13.6432V46.8741ZM13.6432 33.3325C7.98522 32.6997 3.51938 28.2339 2.8866 22.5758H13.6432V33.3325ZM13.6432 19.7908C7.98522 19.158 3.51938 14.6922 2.8866 9.03418H13.6432V19.7908ZM43.4349 21.2217V34.7633V47.8924C43.4321 50.3629 41.4303 52.3647 38.9598 52.3675H20.8267C18.3562 52.3647 16.3544 50.3629 16.3516 47.8924V34.7633V21.2217V8.09261C16.3544 5.62215 18.3562 3.62032 20.8267 3.61751H38.9598C41.4303 3.62032 43.4321 5.62215 43.4349 8.09261V21.2217ZM56.8999 36.1175C56.2671 41.7755 51.8012 46.2414 46.1432 46.8741V36.1175H56.8999ZM56.8999 22.5758C56.2671 28.2339 51.8012 32.6997 46.1432 33.3325V22.5758H56.8999ZM46.1432 19.7908V9.03418H56.8999C56.2671 14.6922 51.8012 19.158 46.1432 19.7908ZM29.8932 22.5758C26.9017 22.5758 24.4766 25.001 24.4766 27.9925C24.4766 30.984 26.9017 33.4092 29.8932 33.4092C32.8832 33.4054 35.3061 30.9825 35.3099 27.9925C35.3099 25.001 32.8847 22.5758 29.8932 22.5758ZM29.8932 30.7008C28.3974 30.7008 27.1849 29.4883 27.1849 27.9925C27.1849 26.4967 28.3974 25.2842 29.8932 25.2842C31.3886 25.2852 32.6006 26.4972 32.6016 27.9925C32.6016 29.4883 31.3891 30.7008 29.8932 30.7008Z" fill="black"/>
</svg>
